<?xml version="1.0" encoding="utf-8"?>

<svg xmlns="http://www.w3.org/2000/svg" xmlns:xlink="http://www.w3.org/1999/xlink" 
  height="512" width="512" viewBox="0 0 512 512">

  <image href="https://s0.gifyu.com/images/hello_kitty_Hello_Kitty_Head_ClipArt_in_PNG_File.png" height="512" width="512" />

  <rect width="512" height="512" stroke="red" fill="rgba(255,255,255,0.95)" opacity="0.95" ></rect>

  <text x="2" y="12" font-size="12" text-anchor="start" fill="red">0</text>
  <path d="M256  64 H0 H512" stroke="lightgray" fill="white"></path>
  <text x="2" y="68" font-size="12" text-anchor="start" fill="red">64</text>
  <path d="M256 128 H0 H512" stroke="lightgray" fill="white"></path>
  <text x="2" y="132" font-size="12" text-anchor="start" fill="red">128</text>
  <path d="M256 192 H0 H512" stroke="lightgray" fill="white"></path>
  <text x="2" y="196" font-size="12" text-anchor="start" fill="red">192</text>
  <path d="M256 256 H0 H512" stroke="lightgray" fill="white"></path>
  <text x="2" y="260" font-size="12" text-anchor="start" fill="red">256</text>
  <path d="M256 320 H0 H512" stroke="lightgray" fill="white"></path>
  <text x="2" y="324" font-size="12" text-anchor="start" fill="red">320</text>
  <path d="M256 384 H0 H512" stroke="lightgray" fill="white"></path>
  <text x="2" y="388" font-size="12" text-anchor="start" fill="red">384</text>
  <path d="M256 448 H0 H512" stroke="lightgray" fill="white"></path>
  <text x="2" y="452" font-size="12" text-anchor="start" fill="red">448</text>
  <text x="2" y="510" font-size="12" text-anchor="start" fill="red">512</text>

  <path d="M64  0 V512" stroke="lightgray" fill="white"></path>
  <text x="58" y="12" font-size="12" text-anchor="start" fill="red">64</text>
  <path d="M128  0 V512" stroke="lightgray" fill="white"></path>
  <text x="118" y="12" font-size="12" text-anchor="start" fill="red">128</text>
  <path d="M195  0 V512" stroke="lightgray" fill="white"></path>
  <text x="186" y="12" font-size="12" text-anchor="start" fill="red">192</text>
  <path d="M256  0 V512" stroke="lightgray" fill="white"></path>
  <text x="246" y="12" font-size="12" text-anchor="start" fill="red">256</text>
  <path d="M320  0 V512" stroke="lightgray" fill="white"></path>
  <text x="310" y="12" font-size="12" text-anchor="start" fill="red">320</text>
  <path d="M384  0 V512" stroke="lightgray" fill="white"></path>
  <text x="374" y="12" font-size="12" text-anchor="start" fill="red">384</text>
  <path d="M448  0 V512" stroke="lightgray" fill="white"></path>
  <text x="438" y="12" font-size="12" text-anchor="start" fill="red">448</text>
  <text x="492" y="12" font-size="12" text-anchor="start" fill="red">512</text>

  <path d="M256 256 V270 V242 M256 256 H270 H242" stroke="black" fill="white"></path>

  <text x="254" y="250" font-size="16" text-anchor="middle" fill="red">(256, 256)</text>
<!--<path d="M456 256 A200 140, 0, 0, 0, 56 256" stroke-width="5" stroke="#F00" fill="none" opacity="0.3"/>-->  
  <path d="M456 256 A115 135, -90, 0, 1, 56 256" stroke-width="10" stroke="#F00" fill="none" opacity="0.3"/>

  <path d="M175 128 A30 25, 60, 1, 0, 80 190" stroke-width="10" stroke="#F00" fill="none" opacity="0.3"/>
  <!--<path d="M350 115 A32 32, 0, 1, 1, 435 155" stroke-width="5" stroke="#F00" fill="none" opacity="0.3"/>--> 
  <!--<path d="M350 115 L415 95 A120 80, -60, 0, 1, 435 155" stroke-width="5" stroke="#F00" fill="none" opacity="0.3"/>-->
  <path d="M350 115 A140 200, 0, 0, 1, 415 95" stroke-width="10" stroke="#F00" fill="none" opacity="0.3"/>
  <path d="M415 95 A150 100, 0, 0, 1, 435 155" stroke-width="10" stroke="#F00" fill="none" opacity="0.3"/>
  <path d="M435 155 A210 60, -50, 0, 1, 448 220" stroke-width="10" stroke="#F00" fill="none" opacity="0.3"/>
  <path d="M448 220 A150 100, 0, 0, 1, 456 256" stroke-width="10" stroke="#F00" fill="none" opacity="0.3"/>
  <path d="M56 256 A120 110, 0, 0, 1, 80 190" stroke-width="10" stroke="#F00" fill="none" opacity="0.3"/>
  <path d="M175 128 A150 110, 0, 0, 1, 270 120" stroke-width="10" stroke="#F00" fill="none" opacity="0.3"/>
  <path d="M270 120 A60 110, 0, 0, 1, 350 115" stroke-width="10" stroke="#F00" fill="none" opacity="0.3"/>

  
</svg>
    