<?xml version="1.0" standalone="no"?>
<!DOCTYPE svg PUBLIC "-//W3C//DTD SVG 1.1//EN" "http://www.w3.org/Graphics/SVG/1.1/DTD/svg11.dtd" >
<svg xmlns="http://www.w3.org/2000/svg" xmlns:xlink="http://www.w3.org/1999/xlink" version="1.1" viewBox="-10 0 266 256">
   <path fill="currentColor"
d="M113 182q1 6 0 13q-8 18 -32 33q-4 1 -5 0q0 -1 3 -3q28 -20 32 -44q1 -3 2 1zM127 196q-6 -2 0 -2q49 11 70 29q3 2 3 4q0 3 -3 4q-13 2 -17 -4q-17 -19 -53 -31zM131 97q-3 2 -3 1q-2 1 -1 3q5 -3 4 -4zM199 79q4 -5 13 -1q4 2 13 7q3 1 4 1q3 3 2 5q-2 3 -6 1
q-12 -3 -27 -2q-14 0 -47 5q-1 1 -2 1q-9 0 -23 8q-1 2 -1 7v13q16 -3 24 -3q9 -1 18 -1q5 0 13 11q2 5 6 4q6 6 0 10q-3 1 -6 6q-16 20 -34 31q-13 9 -19 -2q-4 -3 2 -2q4 2 17 -5q25 -14 27 -37q-1 -10 -9 -12q-9 -3 -39 6q0 3 -1 8q-1 6 0 9q5 -1 7 -3q1 -1 5 -2
q-1 0 2 -1h10q3 3 -1 5q-9 2 -23 7q0 6 -1 11h4q3 -1 5 -2q2 0 4 -2l1 -1h1q2 -2 5 -2q10 0 14 1q2 3 -5 6q-16 2 -41 9q0 7 -3 6q-6 1 -9 -4q-2 -2 -4 -2q-1 3 -7 -3q-4 -4 0 -8q3 -2 0 -5q-10 -13 -11 -23q1 -4 9 -11q5 -3 1 2q-6 6 -4 10q3 19 9 23q4 2 6 6q1 3 5 3
q3 -1 5 1l10 -2v-12q-8 3 -19 4q-4 0 0 -2q1 0 4 -1q11 -3 15 -6q1 -9 1 -18q-17 8 -28 7q-2 -2 1 -3q23 -7 27 -9q-2 -10 -1 -20q-1 1 -2 1t-2 1q-5 1 -1 -1q1 -1 3 -2q1 0 2 -1q-2 -2 -1 -3q-65 16 -84 22q-11 3 -19 1q-3 0 -2 -1q0 -1 3 -2q8 -2 17 -4q105 -26 152 -31
q8 1 15 -7zM144 -6q4 -1 13 3q5 2 1 7q-2 4 -5 15q-3 7 -5 14q4 -1 12 -2q12 -2 17 -7q4 -3 10 -2t13 5q2 1 1 3t-4 2q-27 2 -51 9q-5 17 -9 25h4q3 -1 5 -2q6 3 3 9q-23 4 -45 11q-4 2 -6 -1q-1 -3 2 -5q33 -9 38 -37q-4 2 -14 4q-10 3 -14 4q0 3 2 12q1 3 2 4q-1 5 -7 5
q-2 0 -8 -9q-3 -5 -4 -7q-22 5 -35 5h-4q0 -1 4 -3q4 -1 22 -5q10 -3 12 -4q-3 -12 -11 -25q-2 -3 -1 -4t4 1q15 13 21 24q24 -5 33 -8q2 -7 4 -19q2 -6 3 -10v-1q2 -7 -4 -9q-4 -1 1 -2z" />
</svg>
