<?xml version="1.0" encoding="UTF-8" standalone="no"?>
<svg
   xmlns:dc="http://purl.org/dc/elements/1.1/"
   xmlns:cc="http://creativecommons.org/ns#"
   xmlns:rdf="http://www.w3.org/1999/02/22-rdf-syntax-ns#"
   xmlns:svg="http://www.w3.org/2000/svg"
   xmlns="http://www.w3.org/2000/svg"
   xmlns:sodipodi="http://sodipodi.sourceforge.net/DTD/sodipodi-0.dtd"
   xmlns:inkscape="http://www.inkscape.org/namespaces/inkscape"
   version="1.1"
   viewBox="-10 0 272 256"
   id="svg4"
   sodipodi:docname="An.svg"
   inkscape:version="1.0.2-2 (e86c870879, 2021-01-15)">
  <metadata
     id="metadata10">
    <rdf:RDF>
      <cc:Work
         rdf:about="">
        <dc:format>image/svg+xml</dc:format>
        <dc:type
           rdf:resource="http://purl.org/dc/dcmitype/StillImage" />
        <dc:title></dc:title>
      </cc:Work>
    </rdf:RDF>
  </metadata>
  <defs
     id="defs8" />
  <sodipodi:namedview
     pagecolor="#ffffff"
     bordercolor="#666666"
     borderopacity="1"
     objecttolerance="10"
     gridtolerance="10"
     guidetolerance="10"
     inkscape:pageopacity="0"
     inkscape:pageshadow="2"
     inkscape:window-width="1920"
     inkscape:window-height="1017"
     id="namedview6"
     showgrid="false"
     inkscape:zoom="3.3203125"
     inkscape:cx="135.99799"
     inkscape:cy="115.95294"
     inkscape:window-x="-8"
     inkscape:window-y="-8"
     inkscape:window-maximized="1"
     inkscape:current-layer="svg4" />
  <path
     fill="currentColor"
     d="M118 18q21 4 31 14q15 0 21 1h12q11 2 20 17q1 4 0 6q-2 2 -4 0q-6 -4 -20 0q-8 4 -23 6q-3 0 -4 -1q0 -1 3 -2q15 -5 30 -14q6 -4 0 -9q-12 -3 -33 0q2 9 -5 8q-11 1 -17 -4q-12 6 -22 10q-5 3 -9 1q-9 3 0 18q3 8 -3 7q-6 2 -7 -6q-5 -18 10 -20q2 0 8 -3q2 0 5 -2 q10 -4 17 -7q-1 0 -1 -1q-1 -3 -1 -7q0 -3 -10 -9q-2 0 -1 -2q1 -1 3 -1zM128 83q3 2 7 6q2 2 4 2q6 4 0 8q-4 1 -17 26q4 0 15 -1q13 -1 18 -2q5 -16 1 -19q-3 -4 2 -2q5 3 12 7q3 2 3 3t-3 3q-4 2 -5 7q25 -3 45 -3q4 -11 19 -2q3 3 12 9q4 4 10 7q2 3 -1 6q-6 4 -15 -6 q-12 -9 -25 -10q-13 -2 -46 2q-10 21 -24 42q3 3 10 6q38 22 50 27q9 5 4 9q-4 6 -11 0q-26 -18 -57 -38q-34 34 -84 39q-7 -1 0 -2q48 -9 79 -41q-11 -6 -24 -12l-5 5q-3 2 -3 -2q-1 -9 2 -11q5 -8 10 -17q-6 2 -11 2q-56 10 -87 19q-8 4 -10 -3q-2 -3 1 -2q5 1 10 0t14 -3 q26 -7 85 -16q14 -32 12 -41q-2 -2 -1 -3q1 0 4 1zM120 128q-3 7 -9 17l-2 4q2 2 10 6q7 3 15 7q11 -14 19 -37q-6 1 -17 2t-16 1z"
     id="path2"
     style="fill:none;stroke:#ff0000;stroke-opacity:1" />
</svg>
