<?xml version="1.0" encoding="UTF-8" standalone="no"?>
<svg
   xmlns:dc="http://purl.org/dc/elements/1.1/"
   xmlns:cc="http://creativecommons.org/ns#"
   xmlns:rdf="http://www.w3.org/1999/02/22-rdf-syntax-ns#"
   xmlns:svg="http://www.w3.org/2000/svg"
   xmlns="http://www.w3.org/2000/svg"
   version="1.1"
   viewBox="-10 0 272 256"
   id="svg4">
  <metadata
     id="metadata10">
    <rdf:RDF>
      <cc:Work
         rdf:about="">
        <dc:format>image/svg+xml</dc:format>
        <dc:type
           rdf:resource="http://purl.org/dc/dcmitype/StillImage" />
        <dc:title></dc:title>
      </cc:Work>
    </rdf:RDF>
  </metadata>
  <defs
     id="defs8" />
  <path
     fill="currentColor"
     d="M118 18q21 4 31 14q15 0 21 1h12q11 2 20 17q1 4 0 6q-2 2 -4 0q-6 -4 -20 0q-8 4 -23 6q-3 0 -4 -1q0 -1 3 -2q15 -5 30 -14q6 -4 0 -9q-12 -3 -33 0q2 9 -5 8q-11 1 -17 -4q-12 6 -22 10q-5 3 -9 1q-9 3 0 18q3 8 -3 7q-6 2 -7 -6q-5 -18 10 -20q2 0 8 -3q2 0 5 -2 q10 -4 17 -7q-1 0 -1 -1q-1 -3 -1 -7q0 -3 -10 -9q-2 0 -1 -2q1 -1 3 -1zM128 83q3 2 7 6q2 2 4 2q6 4 0 8q-4 1 -17 26q4 0 15 -1q13 -1 18 -2q5 -16 1 -19q-3 -4 2 -2q5 3 12 7q3 2 3 3t-3 3q-4 2 -5 7q25 -3 45 -3q4 -11 19 -2q3 3 12 9q4 4 10 7q2 3 -1 6q-6 4 -15 -6 q-12 -9 -25 -10q-13 -2 -46 2q-10 21 -24 42q3 3 10 6q38 22 50 27q9 5 4 9q-4 6 -11 0q-26 -18 -57 -38q-34 34 -84 39q-7 -1 0 -2q48 -9 79 -41q-11 -6 -24 -12l-5 5q-3 2 -3 -2q-1 -9 2 -11q5 -8 10 -17q-6 2 -11 2q-56 10 -87 19q-8 4 -10 -3q-2 -3 1 -2q5 1 10 0t14 -3 q26 -7 85 -16q14 -32 12 -41q-2 -2 -1 -3q1 0 4 1zM120 128q-3 7 -9 17l-2 4q2 2 10 6q7 3 15 7q11 -14 19 -37q-6 1 -17 2t-16 1z"
     id="path2"
     style="fill:none;stroke:#ff0000;stroke-opacity:1" />
  <path
     style="fill:none;stroke:#000000;stroke-width:1px;stroke-linecap:butt;stroke-linejoin:miter;stroke-opacity:1"
     d="m 112.27765,16.865882 c 0,0 33.12941,14.155294 30.41882,23.190589"
     id="path835" />
  <path
     style="fill:none;stroke:#000000;stroke-width:1px;stroke-linecap:butt;stroke-linejoin:miter;stroke-opacity:1"
     d="m 98,50 c 0,0 -17.647059,5.416471 -2.28706,30.112941"
     id="path839" />
  <path
     style="fill:none;stroke:#000000;stroke-width:1px;stroke-linecap:butt;stroke-linejoin:miter;stroke-opacity:1"
     d="m 98,51 41.68471,-15.16 c 0,0 45.17647,-7.529412 51.2,3.915294 6.02353,11.444706 7.83058,12.047059 7.83058,12.047059 0,0 -34.33411,-0.301177 -49.99529,11.444706"
     id="path841" />
  <path
     style="fill:none;stroke:#000000;stroke-width:1px;stroke-linecap:butt;stroke-linejoin:miter;stroke-opacity:1"
     d="m 120.10824,78.908235 15.05882,15.36 c 0,0 -31.32235,55.416475 -31.02118,56.018825 0.30118,0.60235 83.72706,38.85176 107.21883,63.84941"
     id="path843" />
  <path
     style="fill:none;stroke:#000000;stroke-width:1px;stroke-linecap:butt;stroke-linejoin:miter;stroke-opacity:1"
     d="m 164.98353,98.785882 c 0,0 -15.36,56.319998 -32.22588,70.776468 -16.86589,14.45647 -34.03294,24.69647 -34.03294,24.69647 0,0 -49.392945,18.37177 -60.837651,16.26353"
     id="path845" />
  <path
     style="fill:none;stroke:#000000;stroke-width:1px;stroke-linecap:butt;stroke-linejoin:miter;stroke-opacity:1"
     d="M -4.5788235,146.97412 8.371765,148.17882 79.148235,133.12 c 0,0 32.527055,-5.42118 45.778825,-6.62588 13.25176,-1.20471 68.06588,-6.62588 68.06588,-6.62588 l 21.68471,0.60235 5.12,-3.31294 26.20235,18.37176 11.44471,6.92706"
     id="path847" />
</svg>
