<?xml version="1.0" standalone="no"?>
<!DOCTYPE svg PUBLIC "-//W3C//DTD SVG 1.1//EN" "http://www.w3.org/Graphics/SVG/1.1/DTD/svg11.dtd" >
<svg xmlns="http://www.w3.org/2000/svg" xmlns:xlink="http://www.w3.org/1999/xlink" version="1.1" viewBox="-10 0 266 256">
   <path fill="currentColor"
d="M154 71q-6 -9 -3 -17q1 -4 1 -10v-22q0 -9 -7 -18q-2 -3 2 -1q17 15 13 16q-2 8 -1 19q18 -4 24 -11q3 -5 8 -4l14 2q1 1 1 3q-1 1 -2 1q-8 0 -16 3q-18 9 -29 9q0 15 -1 27v2q10 -4 18 -6q6 -1 20 12q1 2 1 4q0 3 -3 6v8q-1 12 1 44q1 14 2 20v15q0 1 -1 4v5q-1 2 -1 3
t-1 1q-2 1 -5 -3q-5 -6 -13 -11q-3 -1 -10 -4q-3 -2 -4 -3q-31 44 -65 55q-4 0 -1 -1q38 -20 69 -67q1 -3 -2 -2q-40 18 -43 23q-7 6 -7 0q0 -5 5 -9q2 -1 3 -2q2 -2 2 0t8 -3q0 -2 -4 -7q-1 0 -1 -1q-2 -3 0 -9q-1 -3 1 -5q0 -10 2 -30q0 -8 -2 -14q-1 -3 1 -1q0 2 2 3
q1 2 2 3q1 3 1 6q-5 26 2 54q25 -10 32 -15l2 -2q3 -1 8 0q1 0 1 2q0 1 -1 2q-6 3 -13 17q7 5 22 7q7 1 7 -4q-1 -9 -3 -31q-1 -11 -2 -25t-3 -32q0 -9 -9 -9q-5 1 -12 4q-2 1 -3 1q-4 3 -10 2q-2 0 -1 -1l1 -1q1 0 3 -1q0 1 0 -1zM80 204q2 2 7 11q1 2 3 5q1 5 0 7
q-2 1 -6 0q-4 -4 -7 -11q-7 -12 -12 -14q-2 -1 -2 -3q1 -1 4 -2q5 -1 5 -7q-1 -13 -1 -36t1 -44v-9q1 -4 1 -6q-6 11 -18 41q-17 36 -27 45q-3 3 0 -2q9 -12 27 -54q3 -10 13 -30q2 -5 4 -9q-6 3 -15 8q-7 4 -16 8q-4 4 -17 -2q-2 0 0 -1q7 3 17 -3q26 -11 40 -21q4 -2 3 -9
q0 -2 2 -2q3 -1 3 0q1 0 5 1q2 1 6 1q2 0 2 3q0 4 -3 3q-8 -1 -16 12q-3 4 -5 21q22 9 25 14q1 2 0 4q-1 3 -3 1q-12 -6 -22 -17q-5 32 -2 78q-1 17 4 19zM169 187q-4 -3 2 -2q48 25 56 38q1 6 -5 6q-9 -1 -13 -8q-13 -17 -40 -34zM69 18q-3 -4 2 -1q11 12 24 16q6 6 0 9
q-11 1 -26 -24zM154 98q10 -3 14 0q1 1 0 2q-3 3 -8 4q-3 1 -2 1q-4 1 -6 2q-5 5 -4 1q2 -1 -6 -1q-5 1 -1 -1q10 -4 10 -6t3 -2zM138 127q13 0 19 -5q-1 -2 8 -2q2 0 3 1v1q-1 2 -3 3q-6 3 -8 5q-4 4 -2 -1q0 -2 -3 -1q-8 4 -15 2q-2 -2 1 -3z" />
</svg>
