<?xml version="1.0" encoding="UTF-8" standalone="no"?>
<svg
   xmlns:dc="http://purl.org/dc/elements/1.1/"
   xmlns:cc="http://creativecommons.org/ns#"
   xmlns:rdf="http://www.w3.org/1999/02/22-rdf-syntax-ns#"
   xmlns:svg="http://www.w3.org/2000/svg"
   xmlns="http://www.w3.org/2000/svg"
   version="1.1"
   viewBox="-10 0 266 256"
   id="svg4">
  <metadata
     id="metadata10">
    <rdf:RDF>
      <cc:Work
         rdf:about="">
        <dc:format>image/svg+xml</dc:format>
        <dc:type
           rdf:resource="http://purl.org/dc/dcmitype/StillImage" />
        <dc:title></dc:title>
      </cc:Work>
    </rdf:RDF>
  </metadata>
  <defs
     id="defs8" />
  <path
     fill="currentColor"
     d="M154 71q-6 -9 -3 -17q1 -4 1 -10v-22q0 -9 -7 -18q-2 -3 2 -1q17 15 13 16q-2 8 -1 19q18 -4 24 -11q3 -5 8 -4l14 2q1 1 1 3q-1 1 -2 1q-8 0 -16 3q-18 9 -29 9q0 15 -1 27v2q10 -4 18 -6q6 -1 20 12q1 2 1 4q0 3 -3 6v8q-1 12 1 44q1 14 2 20v15q0 1 -1 4v5q-1 2 -1 3 t-1 1q-2 1 -5 -3q-5 -6 -13 -11q-3 -1 -10 -4q-3 -2 -4 -3q-31 44 -65 55q-4 0 -1 -1q38 -20 69 -67q1 -3 -2 -2q-40 18 -43 23q-7 6 -7 0q0 -5 5 -9q2 -1 3 -2q2 -2 2 0t8 -3q0 -2 -4 -7q-1 0 -1 -1q-2 -3 0 -9q-1 -3 1 -5q0 -10 2 -30q0 -8 -2 -14q-1 -3 1 -1q0 2 2 3 q1 2 2 3q1 3 1 6q-5 26 2 54q25 -10 32 -15l2 -2q3 -1 8 0q1 0 1 2q0 1 -1 2q-6 3 -13 17q7 5 22 7q7 1 7 -4q-1 -9 -3 -31q-1 -11 -2 -25t-3 -32q0 -9 -9 -9q-5 1 -12 4q-2 1 -3 1q-4 3 -10 2q-2 0 -1 -1l1 -1q1 0 3 -1q0 1 0 -1zM80 204q2 2 7 11q1 2 3 5q1 5 0 7 q-2 1 -6 0q-4 -4 -7 -11q-7 -12 -12 -14q-2 -1 -2 -3q1 -1 4 -2q5 -1 5 -7q-1 -13 -1 -36t1 -44v-9q1 -4 1 -6q-6 11 -18 41q-17 36 -27 45q-3 3 0 -2q9 -12 27 -54q3 -10 13 -30q2 -5 4 -9q-6 3 -15 8q-7 4 -16 8q-4 4 -17 -2q-2 0 0 -1q7 3 17 -3q26 -11 40 -21q4 -2 3 -9 q0 -2 2 -2q3 -1 3 0q1 0 5 1q2 1 6 1q2 0 2 3q0 4 -3 3q-8 -1 -16 12q-3 4 -5 21q22 9 25 14q1 2 0 4q-1 3 -3 1q-12 -6 -22 -17q-5 32 -2 78q-1 17 4 19zM169 187q-4 -3 2 -2q48 25 56 38q1 6 -5 6q-9 -1 -13 -8q-13 -17 -40 -34zM69 18q-3 -4 2 -1q11 12 24 16q6 6 0 9 q-11 1 -26 -24zM154 98q10 -3 14 0q1 1 0 2q-3 3 -8 4q-3 1 -2 1q-4 1 -6 2q-5 5 -4 1q2 -1 -6 -1q-5 1 -1 -1q10 -4 10 -6t3 -2zM138 127q13 0 19 -5q-1 -2 8 -2q2 0 3 1v1q-1 2 -3 3q-6 3 -8 5q-4 4 -2 -1q0 -2 -3 -1q-8 4 -15 2q-2 -2 1 -3z"
     id="path2"
     style="fill:none;stroke:#ff0000;stroke-opacity:1" />
  <path
     style="fill:none;stroke:#000000;stroke-width:1px;stroke-linecap:butt;stroke-linejoin:miter;stroke-opacity:1"
     d="m 66.197647,12.649412 c 0,0 14.155294,18.974117 19.576471,21.684706 C 91.19529,37.044706 102.64,39.152941 102.64,39.152941"
     id="path835" />
  <path
     style="fill:none;stroke:#000000;stroke-width:1px;stroke-linecap:butt;stroke-linejoin:miter;stroke-opacity:1"
     d="M 13.190588,98.183529 36.381176,101.79765 78.847059,80.715294 97.52,61.138824 72.221176,91.557647 47.825882,146.67294 c 0,0 -20.178823,40.05647 -25.901176,43.36941"
     id="path841" />
  <path
     style="fill:none;stroke:#000000;stroke-width:1px;stroke-linecap:butt;stroke-linejoin:miter;stroke-opacity:1"
     d="m 79.148235,77.402353 -6.625882,64.150587 1.807059,55.71765 -4.216471,4.81882 c 0,0 19.877647,23.49177 22.287059,31.02118"
     id="path843" />
  <path
     style="fill:none;stroke:#000000;stroke-width:1px;stroke-linecap:butt;stroke-linejoin:miter;stroke-opacity:1"
     d="m 71.92,104.50824 c 0,0 19.57647,7.83058 26.80471,14.45647 7.22823,6.62588 10.24,9.33647 10.24,9.33647"
     id="path845" />
  <path
     style="fill:none;stroke:#000000;stroke-width:1px;stroke-linecap:butt;stroke-linejoin:miter;stroke-opacity:1"
     d="m 138.17882,-2.1082353 c 0,0 15.66118,11.1435294 18.07059,18.3717643 -1.50588,43.068236 -2.10823,55.115295 1.20471,62.945883"
     id="path849" />
  <path
     style="fill:none;stroke:#000000;stroke-width:1px;stroke-linecap:butt;stroke-linejoin:miter;stroke-opacity:1"
     d="m 144.20235,39.755294 c 0,0 20.17883,0.602353 29.81647,-3.614118 9.63765,-4.21647 15.36,-10.24 15.36,-10.24 l 24.09412,2.409412"
     id="path851" />
  <path
     style="fill:none;stroke:#000000;stroke-width:1px;stroke-linecap:butt;stroke-linejoin:miter;stroke-opacity:1"
     d="m 123.72235,83.425882 c 1.20471,1.204706 6.72736,12.301402 7.25977,18.583838 -2.3426,34.8196 -1.688,43.45852 -1.688,43.45852 l 5.87294,22.73882"
     id="path853" />
  <path
     style="fill:none;stroke:#000000;stroke-width:1px;stroke-linecap:butt;stroke-linejoin:miter;stroke-opacity:1"
     d="m 140.99142,74.750338 18.63435,-2.555567 17.35656,-6.175954 c 0,0 12.77783,3.726868 13.41672,11.180606 0.6389,7.453737 0.63983,64.653787 3.62039,72.727177 0.21296,12.77784 0.63889,22.36122 0.63889,22.36122 l -1.70371,7.24077 c 0,0 -15.75933,-11.07413 -32.37052,-16.39822 -16.61118,-5.3241 -11.50005,-3.40743 -11.50005,-3.40743"
     id="path855" />
  <path
     style="fill:none;stroke:#000000;stroke-width:1px;stroke-linecap:butt;stroke-linejoin:miter;stroke-opacity:1"
     d="m 133.36,107.21882 c 3.61412,-0.30117 37.04471,-7.830585 39.75529,-11.143526"
     id="path857" />
  <path
     style="fill:none;stroke:#000000;stroke-width:1px;stroke-linecap:butt;stroke-linejoin:miter;stroke-opacity:1"
     d="m 132.75765,128 c 0,0 25.6,3.01176 39.75529,-11.14353"
     id="path861" />
  <path
     style="fill:none;stroke:#000000;stroke-width:1px;stroke-linecap:butt;stroke-linejoin:miter;stroke-opacity:1"
     d="m 108.06118,173.17647 c 14.45647,-3.61412 72.58353,-35.23765 74.69176,-35.53882"
     id="path863" />
  <path
     style="fill:none;stroke:#000000;stroke-width:1px;stroke-linecap:butt;stroke-linejoin:miter;stroke-opacity:1"
     d="m 171.91059,134.32471 c 0,0 -8.13177,34.03294 -27.70824,49.69411 C 121.91529,205.10118 112.88,211.12471 112.88,211.12471 l -25.298824,12.34823"
     id="path865" />
  <path
     style="fill:none;stroke:#000000;stroke-width:1px;stroke-linecap:butt;stroke-linejoin:miter;stroke-opacity:1"
     d="m 159.86353,182.81412 c 0,0 39.45412,16.5647 48.79059,28.91294 12.64941,12.04706 22.58823,21.08235 22.58823,21.08235"
     id="path867" />
</svg>
